<svg width="85" height="85" fill="none" xmlns="http://www.w3.org/2000/svg"><path d="M22.792 69.203c12.035 6.022 26.674 1.147 32.695-10.888C61.51 46.279 56.634 31.64 44.6 25.619c-12.035-6.022-26.674-1.147-32.695 10.889-6.022 12.035-1.147 26.673 10.888 32.695Z" fill="#fff"/><path d="M65.179 28.642c5.443 2.723 12.063.518 14.786-4.924 2.724-5.444.519-12.064-4.924-14.787-5.443-2.723-12.063-.519-14.786 4.924-2.724 5.443-.52 12.063 4.924 14.787Z" fill="#F2BFAF" stroke="#2D2D2D" stroke-width="2" stroke-miterlimit="10"/><path d="M26.744 70.735a17.287 17.287 0 0 0-5.421-26.677 17.196 17.196 0 0 0-11.458-1.422M42.21 24.09a16.484 16.484 0 0 0-3.126 4.329 16.547 16.547 0 0 0 7.388 22.198 16.46 16.46 0 0 0 11.153 1.315" stroke="#F8D57E" stroke-width="2" stroke-miterlimit="10"/><path d="m29.18 66.333-2.5 4-7-4-5-4-4-6.5-1.5-6.5 1-6.5h4.5l6 1 6.5 5 2 5 1.5 6-1.5 6.5Zm10.701-38.402 2.784-3.808 6.691 4.497 4.697 4.353 3.518 6.773 1.024 6.591-1.469 6.41-4.488-.326-5.912-1.432-6.12-5.459-2.692-5.784v-5.44l1.967-6.375Z" fill="#F8D57E"/><path d="M22.792 69.203c12.035 6.022 26.674 1.147 32.695-10.888C61.51 46.279 56.634 31.64 44.6 25.619c-12.035-6.022-26.674-1.147-32.695 10.889-6.022 12.035-1.147 26.673 10.888 32.695Z" stroke="#2D2D2D" stroke-width="2" stroke-miterlimit="10"/></svg>