<svg width="117" height="35" fill="none" xmlns="http://www.w3.org/2000/svg"><g clip-path="url(#a)" fill-rule="evenodd" clip-rule="evenodd" fill="#2D2D2D"><path d="M72.632 27.371C65.916 32.346 56.181 35 47.8 35c-11.753 0-22.334-4.368-30.338-11.633-.63-.571-.066-1.35.689-.905 8.638 5.05 19.32 8.089 30.353 8.089 7.441 0 15.627-1.547 23.153-4.757 1.137-.486 2.088.748.976 1.577Z"/><path d="M75.424 24.16c-.855-1.101-5.675-.52-7.838-.262-.66.08-.76-.496-.166-.91 3.839-2.715 10.138-1.931 10.872-1.021.735.915-.191 7.26-3.798 10.288-.554.465-1.082.217-.836-.4.81-2.032 2.627-6.587 1.766-7.694ZM67.737 3.822V1.183c0-.4.302-.667.664-.667H80.16c.377 0 .68.273.68.667v2.26c-.006.38-.323.875-.886 1.658l-6.093 8.741c2.264-.055 4.654.284 6.707 1.446.462.263.588.647.623 1.027v2.816c0 .384-.422.834-.865.601-3.617-1.906-8.422-2.113-12.422.02-.407.223-.835-.222-.835-.606V16.47c0-.43.005-1.162.433-1.815l7.058-10.171h-6.143c-.377 0-.679-.268-.679-.663ZM24.846 20.288h-3.578a.677.677 0 0 1-.639-.611V1.229c0-.37.307-.663.69-.663h3.335a.675.675 0 0 1 .65.617v2.412h.065c.87-2.331 2.505-3.418 4.71-3.418 2.238 0 3.637 1.087 4.643 3.418.865-2.331 2.832-3.418 4.94-3.418 1.5 0 3.14.622 4.141 2.017 1.132 1.552.9 3.807.9 5.784L44.7 19.62a.677.677 0 0 1-.69.667h-3.572a.682.682 0 0 1-.644-.667V9.843c0-.778.07-2.72-.1-3.458-.267-1.238-1.067-1.587-2.103-1.587-.866 0-1.771.581-2.139 1.511-.367.93-.332 2.488-.332 3.534v9.778a.677.677 0 0 1-.689.667h-3.572a.678.678 0 0 1-.644-.667l-.005-9.778c0-2.057.337-5.086-2.204-5.086-2.57 0-2.47 2.953-2.47 5.086v9.778a.677.677 0 0 1-.69.667M90.961.177c5.308 0 8.18 4.58 8.18 10.404 0 5.627-3.174 10.091-8.18 10.091-5.212 0-8.05-4.58-8.05-10.288 0-5.743 2.873-10.207 8.05-10.207Zm.03 3.766c-2.636 0-2.802 3.61-2.802 5.86 0 2.255-.035 7.068 2.772 7.068 2.772 0 2.903-3.883 2.903-6.25 0-1.556-.065-3.417-.533-4.893-.403-1.284-1.203-1.785-2.34-1.785ZM106.024 20.288h-3.562a.682.682 0 0 1-.644-.667l-.005-18.453a.678.678 0 0 1 .689-.602h3.316a.686.686 0 0 1 .639.516v2.821h.065c1.001-2.523 2.405-3.726 4.875-3.726 1.605 0 3.17.581 4.176 2.174.936 1.476.936 3.958.936 5.743v11.613c-.04.323-.337.581-.689.581h-3.588c-.327-.025-.598-.268-.633-.581V9.687c0-2.018.231-4.97-2.239-4.97-.871 0-1.671.586-2.068 1.476-.503 1.128-.569 2.25-.569 3.494v9.934a.69.69 0 0 1-.699.667M58.364 11.476c0 1.4.035 2.568-.67 3.812-.568 1.011-1.473 1.633-2.475 1.633-1.373 0-2.178-1.051-2.178-2.603 0-3.064 2.732-3.62 5.323-3.62v.778Zm3.607 8.762a.744.744 0 0 1-.845.085c-1.187-.99-1.404-1.45-2.053-2.396-1.962 2.012-3.355 2.614-5.896 2.614-3.014 0-5.353-1.866-5.353-5.602 0-2.917 1.57-4.904 3.813-5.874 1.942-.86 4.654-1.011 6.727-1.249v-.465c0-.855.065-1.866-.438-2.604-.432-.662-1.268-.935-2.007-.935-1.364 0-2.576.703-2.873 2.159-.06.323-.297.642-.624.657l-3.466-.374c-.292-.066-.62-.304-.534-.753.795-4.227 4.599-5.501 8-5.501 1.74 0 4.015.465 5.388 1.79 1.741 1.633 1.575 3.812 1.575 6.183v5.601c0 1.684.694 2.422 1.348 3.332.227.324.277.713-.015.956-.73.611-2.027 1.749-2.742 2.386l-.005-.01M11.468 11.476c0 1.4.035 2.569-.67 3.812-.568 1.011-1.468 1.633-2.474 1.633-1.374 0-2.174-1.051-2.174-2.603 0-3.064 2.732-3.62 5.318-3.62v.778Zm3.607 8.762a.744.744 0 0 1-.845.086c-1.187-.991-1.399-1.451-2.053-2.397-1.962 2.013-3.35 2.614-5.896 2.614-3.009 0-5.353-1.865-5.353-5.601 0-2.917 1.574-4.904 3.813-5.875 1.942-.86 4.654-1.011 6.727-1.249v-.465c0-.854.066-1.865-.433-2.604-.437-.662-1.273-.935-2.007-.935-1.364 0-2.581.703-2.878 2.159-.06.323-.297.642-.619.657L2.06 6.254c-.292-.066-.614-.303-.534-.753.8-4.227 4.599-5.5 8-5.5 1.74 0 4.015.464 5.388 1.789 1.741 1.633 1.575 3.812 1.575 6.183v5.602c0 1.683.694 2.421 1.348 3.331.232.324.282.713-.01.956-.729.611-2.027 1.749-2.742 2.386l-.01-.01"/></g><defs><clipPath id="a"><path fill="#fff" transform="translate(.928)" d="M0 0h115.581v35H0z"/></clipPath></defs></svg>