<svg width="61" height="40" fill="none" xmlns="http://www.w3.org/2000/svg"><g clip-path="url(#a)" fill="#2D2D2D"><path d="M45.621 20.003a1.195 1.195 0 0 0-.345-.254c-.929-.555-1.84-1.137-2.792-1.644a14.04 14.04 0 0 0-2.058-.864c-.864-.298-1.364-.96-1.248-1.864a.797.797 0 0 0-.239-.737c-.323-.321-.304-.383.161-.65a3.727 3.727 0 0 1-.214-.574.806.806 0 0 1 .045-.432c.145-.37.335-.72.473-1.093.106-.287 0-.46-.345-.465a6.515 6.515 0 0 1-2.779-.722 14.267 14.267 0 0 1-1.354-.67c-.726-.46-1.45-.392-2.185-.088-.15.063-.249.248-.372.377l.066.123-1.21-.076c-.272-.017-.578-.123-.808-.033-.411.16-.788.097-1.182.023l-1.708-.327c.14.417-.09.39-.303.346-.346-.06-.705-.15-1.061-.197-.256-.037-.519-.03-.884-.045l.37.487a3.63 3.63 0 0 1-3.976-.828c-1.038-1.124-1.323-2.53-1.447-3.977-.158-1.817.295-3.51 1.123-5.119.087-.194.16-.394.222-.598l-.139-.1a4.606 4.606 0 0 0-.624.406 5.387 5.387 0 0 0-1.774 3.183c-.114.691-.086 1.406-.152 2.106-.012.138-.159.266-.244.397-.107-.115-.29-.224-.304-.345-.057-.498-.066-1.003-.081-1.505-.01-.293 0-.586 0-.987a1.713 1.713 0 0 0-.762 1.21c-.29 1.446-.078 2.805.772 4.04.104.176.197.359.277.547l-.173.104a6.96 6.96 0 0 1-.657-.814c-.258-.43-.444-.905-.692-1.345a2.383 2.383 0 0 0-.37-.415c-.067.192-.14.382-.198.575a.416.416 0 0 0 .012.173 5.462 5.462 0 0 0 1.578 3.163c1.015 1.014 2.229 1.716 3.532 2.287.14.062.358.202.357.302a9.049 9.049 0 0 1-.133 1.84c-.248 1.096-1.335 1.456-2.258.804-.571-.405-.765-.415-1.26.112a3.874 3.874 0 0 1-1.825 1.09c-.636.172-1.267.383-1.902.594a6.64 6.64 0 0 0-.954.39c-.12.063-.185.23-.275.347l.323.226-.518.358.36.289a.819.819 0 0 0-.094.16c-.038.122-.066.246-.099.369.135.024.284.097.4.062.273-.091.538-.204.793-.337 1.057-.519 2.127-1.037 3.16-1.596 1.035-.558 1.979-.465 2.983.099.566.316 1.228.477 1.86.653.535.149 1.026-.03 1.453-.373.38-.308.754-.624 1.136-.932a2.286 2.286 0 0 1 2.15-.46c.402.129.795.282 1.178.458.757.317 1.492.692 2.266.958a5.879 5.879 0 0 0 3.698.107c.976-.306 1.776-.226 2.421.617.313.405.692.52 1.22.362 1.188-.36 2.36-.332 3.469.313.498.29.996.582 1.51.836.482.232.975.435 1.48.61a.844.844 0 0 0 .888-.345l.536-.21a3.336 3.336 0 0 0-.274-.482ZM57.463 25.814a4.655 4.655 0 0 0-.977-.529c-.486-.173-1.001-.254-1.495-.4a6.57 6.57 0 0 0-3.716 0c-2.092.613-3.804 1.816-4.746 3.89-.11.245-.098.552-.233.777-.519.882-.43 1.859-.519 3.223.074.453.215 1.297.356 2.14.235 1.392 1.08 2.405 2.16 3.194 1.108.807 2.261 1.509 3.732 1.626 1.057.087 2.066.272 3.15.054 1.176-.235 2.106-.804 2.952-1.577.316-.289.55-.667.855-.97 1.136-1.12 1.66-2.522 1.871-4.06.211-1.536-.072-2.952-.65-4.368-.548-1.366-1.575-2.24-2.74-3Zm-1.487 9.51a4.725 4.725 0 0 1-3.458.935c-1.59-.196-2.4-1.123-2.939-2.571-.47-1.257-.227-2.364.21-3.507a1.54 1.54 0 0 1 .386-.563c.68-.628 1.327-1.195 2.376-1.312.842-.096 1.611.062 2.362.228 1.11.245 1.718 1.175 2.062 2.199.208.616.22 1.297.317 1.926-.104 1.09-.519 2.08-1.316 2.671v-.007Z"/><path d="M32.478 6.032c-.083.102-.109.396-.04.45.301.211.615.404.94.577.094.147.209.354.345.365.488.04.98.015 1.508.015l-.822.98.33.144-.535.42c.13.076.195.125.268.158.59.266 1.19.51 1.767.798a9.36 9.36 0 0 0 2.88.865c.401.059.67-.049.78-.472.06-.223.144-.438.249-.643a4.222 4.222 0 0 1 2.401-2.196c1.223-.448 1.8-1.292 1.674-2.533-.038-.378-.23-.555-.588-.529a8.962 8.962 0 0 0-1.198.147c-.676.138-1.228.02-1.71-.519-.541-.613-1.21-1.02-2.092-.89a2.336 2.336 0 0 1-1.528-.334c-.324-.183-.671-.394-1.024-.432a4.512 4.512 0 0 0-3.236.795c-.14.125-.267.263-.383.41.262.083.436.133.604.197.086.033.233.097.232.14-.016.375.285.346.501.407.173.05.346.08.51.119l.017.12c-.396.28-.797.55-1.184.843a3.953 3.953 0 0 0-.666.598Zm11.375-1.086c0 .095.059.294-.014.37a.918.918 0 0 1-.519.29.63.63 0 0 1-.709-.414l1.242-.246ZM16.76 21.368c.201-.028.397-.08.585-.154.557-.301 1.107-.614 1.641-.951.726-.458 1.492-.76 2.362-.692.416.043.83.108 1.24.196 1.163.231 2.15-.031 2.973-.93.453-.46.934-.892 1.44-1.292.235-.199.183-.379-.053-.443a1.454 1.454 0 0 0-.827-.027c-.32.124-.61.318-.847.567-1.136 1.163-2.42 1.701-4.06 1.184a7.43 7.43 0 0 0-1.65-.313 2.012 2.012 0 0 0-1.08.173c-.826.448-1.642.948-1.818 2.023l.282.109-.244.418.057.132ZM41.147 15.21c-.401-.027-.799-.103-1.198-.134-.275-.02-.39.13-.358.405a1.336 1.336 0 0 0 1.2 1.225c.413.047.832.038 1.247.076 1.013.092 2.028.184 3.039.305.315.038.612.15.54-.337l.662.114-.153-.46.673-.064a.875.875 0 0 0-.782-.673 50.95 50.95 0 0 0-2.985-.36c-.626-.062-1.254-.055-1.885-.098ZM18.633 34.117c1.117-.12 2.236-.218 3.354-.315 1.866-.163 3.731-.311 5.595-.477.545-.049.671-.173.716-.728a9.243 9.243 0 0 0-.451-3.786c-.533-1.537-1.601-2.73-2.984-3.562-1.423-.856-3.01-1.11-4.668-.882a6.224 6.224 0 0 0-3.363 1.529c-.527.47-.958 1.05-1.408 1.6-.791.969-1.127 2.13-1.282 3.337a10.14 10.14 0 0 0 .243 3.892c.443 1.71 1.352 3.112 2.784 4.072a6.8 6.8 0 0 0 1.22.65c1.06.427 2.204.61 3.344.536.097 0 .196.01.29 0a.898.898 0 0 0 .098-.01c.96-.153 1.969-.173 2.873-.5 1.506-.536 2.44-1.769 3.202-3.13.135-.236.102-.402-.13-.537-.447-.26-.881-.548-1.347-.773-1.018-.493-1.037-.491-1.808.346a3.098 3.098 0 0 1-1.931.956 26.07 26.07 0 0 1-1.373.152c-1.383.116-2.524-.322-3.363-1.452-.4-.548-.28-.854.39-.918Zm-.849-3.795c.265-1.1 1.038-1.695 2.03-2.101a4.09 4.09 0 0 1 2.995-.055c1.07.371 1.815 1.07 2.045 2.329-.71.043-1.366.088-2.023.124-1.535.083-3.071.163-4.607.24-.44.025-.543-.103-.44-.537ZM12.146 34.267c-.236-.752-.608-1.383-1.263-1.852-.173-.123-.376-.268-.133-.518a3.976 3.976 0 0 0 1.14-2.959c0-.784-.146-1.448-.665-2.022-1.21-1.34-2.614-2.264-4.518-2.224-1.037.023-2.092-.055-3.138-.076-.702-.014-1.405 0-2.107-.012-.285 0-.393.097-.396.408-.014 1.883-.055 3.767-.087 5.652-.026 1.58-.046 3.158-.077 4.739 0 .287-.076.572-.066.864.028.802.081 1.603.123 2.405H.914c0 .26.017.519 0 .778-.031.355.086.505.46.455.269-.037.541-.044.812-.02 1.94.174 3.878.067 5.81-.094 2.109-.173 3.512-1.293 4.187-3.311a3.499 3.499 0 0 0-.037-2.213ZM4.53 28.676c0-.346.136-.52.53-.465.333.026.667.029 1 .008.379.037.894.075 1.406.14.33.042.6.244.605.574a4.23 4.23 0 0 1-.173 1.248.667.667 0 0 1-.491.346c-.84.094-1.688.135-2.533.192a.291.291 0 0 1-.346-.327c0-.568-.003-1.142.002-1.716Zm2.754 7.678c-.491.086-.998.091-1.497.133v-.073h-.993c-.226 0-.297-.102-.288-.318.022-.59.046-1.18.04-1.767a.366.366 0 0 1 .368-.429c.887-.078 1.775-.162 2.664-.2.403-.018.785.536.842 1.113.081.846-.3 1.395-1.136 1.54ZM44.047 35.432c-.654-.318-1.35-.553-2.034-.81-.345-.136-.612 0-.874.27-.38.41-.803.776-1.263 1.092-.81.529-1.746.553-2.667.427-.692-.094-1.421-.15-1.975-.645-1.367-1.222-1.704-2.766-1.303-4.495.083-.365.22-.715.408-1.038.221-.377.461-.8.807-1.037 1.492-1.018 3.65-1.23 5.2-.144.172.132.358.243.556.33a.537.537 0 0 0 .434 0 47.16 47.16 0 0 0 2.1-1.652.479.479 0 0 0 .045-.463c-.373-.433-.719-.96-1.201-1.21-1.446-.758-2.915-1.532-4.623-1.354-1.655-.023-3.073.601-4.425 1.442a5.68 5.68 0 0 0-2.562 3.495 14.405 14.405 0 0 0-.403 1.942c-.128 1.037-.154 2.066.2 3.072.282.817.678 1.589 1.178 2.293.482.67.982 1.3 1.677 1.76 1.84 1.21 3.845 1.502 5.992 1.148 2.193-.363 3.879-1.444 5.014-3.361.327-.543.303-.777-.281-1.062Z"/></g><defs><clipPath id="a"><path fill="#fff" transform="translate(.836)" d="M0 0h60.092v40H0z"/></clipPath></defs></svg>