<svg width="107" height="35" fill="none" xmlns="http://www.w3.org/2000/svg"><path d="M46.01 18.419c0 5.035-3.94 8.746-8.774 8.746s-8.773-3.71-8.773-8.746c0-5.071 3.939-8.746 8.773-8.746 4.835 0 8.774 3.675 8.774 8.746Zm-3.84 0c0-3.147-2.284-5.3-4.934-5.3-2.65 0-4.933 2.153-4.933 5.3 0 3.115 2.283 5.3 4.933 5.3s4.933-2.189 4.933-5.3ZM64.937 18.419c0 5.035-3.94 8.746-8.773 8.746-4.835 0-8.774-3.71-8.774-8.746 0-5.067 3.94-8.746 8.773-8.746 4.835 0 8.774 3.675 8.774 8.746Zm-3.84 0c0-3.147-2.284-5.3-4.934-5.3-2.65 0-4.932 2.153-4.932 5.3 0 3.115 2.283 5.3 4.932 5.3 2.65 0 4.934-2.189 4.934-5.3ZM83.076 10.201v15.702c0 6.46-3.81 9.097-8.312 9.097-4.24 0-6.79-2.835-7.753-5.154l3.344-1.392c.596 1.424 2.055 3.104 4.405 3.104 2.882 0 4.668-1.779 4.668-5.127v-1.257h-.134c-.86 1.06-2.515 1.987-4.605 1.987-4.373 0-8.38-3.81-8.38-8.71 0-4.938 4.007-8.778 8.38-8.778 2.086 0 3.742.927 4.605 1.956h.135v-1.424h3.647v-.004Zm-3.375 8.25c0-3.08-2.055-5.332-4.67-5.332-2.649 0-4.869 2.252-4.869 5.331 0 3.049 2.22 5.269 4.87 5.269 2.614 0 4.669-2.22 4.669-5.269ZM89.09.998v25.63h-3.747V.998h3.746ZM103.687 21.297l2.981 1.988c-.962 1.423-3.28 3.876-7.287 3.876-4.968 0-8.679-3.84-8.679-8.746 0-5.201 3.742-8.746 8.25-8.746 4.538 0 6.758 3.612 7.484 5.564l.398.993-11.692 4.843c.895 1.754 2.287 2.65 4.24 2.65 1.955 0 3.311-.963 4.305-2.422Zm-9.176-3.146 7.816-3.246c-.43-1.092-1.723-1.853-3.245-1.853-1.952 0-4.67 1.723-4.57 5.099ZM14.283 16.143v-3.71h12.504c.122.647.185 1.412.185 2.24 0 2.784-.761 6.226-3.214 8.679-2.385 2.484-5.433 3.809-9.471 3.809C6.802 27.16.509 21.065.509 13.58.509 6.095 6.802 0 14.287 0c4.14 0 7.09 1.625 9.306 3.742L20.974 6.36c-1.589-1.49-3.742-2.65-6.691-2.65-5.466 0-9.74 4.405-9.74 9.87 0 5.466 4.274 9.87 9.74 9.87 3.545 0 5.563-1.423 6.857-2.717 1.049-1.049 1.739-2.547 2.011-4.593l-8.868.003Z" fill="#2D2D2D"/></svg>