<svg width="74" height="61" fill="none" xmlns="http://www.w3.org/2000/svg"><path d="m30 33 3 3.5-5.5 5.5 2.5 2-4 2-2.5-2H19l-3.5 3.5v4l2 3.5-2 3-4.5-6.5 1-5.5 3.5-4L30 33Z" fill="#009379"/><path d="M31.5 47 30 43.5l-3.5 2v7l-2 2H21l-3-.5-2.5 3.5L19 59h5.5l4-2.5 2.5-4 .5-5.5Z" fill="#009379"/><path d="m18.023 40.207 18.544-11.503v-5.62l29.9-14.625-38.745 32.905" stroke="#2D2D2D" stroke-width="2" stroke-linecap="round" stroke-linejoin="round"/><path d="M18.055 40.278a10.197 10.197 0 1 0 9.673 1.086" stroke="#2D2D2D" stroke-width="2" stroke-linecap="round" stroke-linejoin="round"/><path d="m27.439 24.448 1-5.23-5.669-1.323 1.146-2.99-4.463.298-1.145 2.99-3.882 2.275-4.79-1.25-2.022-3.45-.045-4.031-3.242-1.577v7.288l3.049 4.835 5.042 1.68 15.02.485Z" fill="#009379"/><path d="m23.693 11.559.476 3.778-4.031.044-.7-3.933-3.5-3-4-.5-2.5 2-.932 2.399-3.927-1.755L6.84 7.527l3.599-3.58 5.5-.5 4.199 2.5 3.555 5.612Z" fill="#009379"/><path d="M21.818 55.512a5.813 5.813 0 1 0 0-11.626 5.813 5.813 0 0 0 0 11.626ZM38.914 21.934 23.008 18.5M40.634 30.404 72.7 29.227l-24.467-5.282M14.745 24.022l21.777 1.384M15.003 24.029A10.197 10.197 0 1 1 20.383 6a10.198 10.198 0 0 1 2.528 3.073 10.21 10.21 0 0 1 .104 9.427" stroke="#2D2D2D" stroke-width="2" stroke-linecap="round" stroke-linejoin="round"/><path d="M13.872 19.761a5.813 5.813 0 1 0 0-11.625 5.813 5.813 0 0 0 0 11.625Z" stroke="#2D2D2D" stroke-width="2" stroke-linecap="round" stroke-linejoin="round"/><path d="M42.189 24.715v-.005l.003-.003.003-.002.003-.001h.006a.01.01 0 0 1 .003.003l.002.003V24.719l-.002.003-.003.002H42.2v.001h-.002l-.003-.001a.01.01 0 0 1-.003-.002s-.002-.001-.002-.003l-.001-.004Z" fill="#2D2D2D" stroke="#2D2D2D" stroke-width="2"/></svg>