<svg width="85" height="85" fill="none" xmlns="http://www.w3.org/2000/svg"><path d="m36 45 3 3.5-5.5 5.5 2.5 2-4 2-2.5-2H25l-3.5 3.5v4l2 3.5-2 3-4.5-6.5 1-5.5 3.5-4L36 45Z" fill="#009379"/><path d="M37.5 59 36 55.5l-3.5 2v7l-2 2H27l-3-.5-2.5 3.5L25 71h5.5l4-2.5 2.5-4 .5-5.5Z" fill="#009379"/><path d="m24.023 52.207 18.544-11.503v-5.62l29.9-14.625-38.745 32.905" stroke="#2D2D2D" stroke-width="2" stroke-linecap="round" stroke-linejoin="round"/><path d="M24.055 52.278a10.196 10.196 0 1 0 12.876 4.733 10.203 10.203 0 0 0-3.203-3.647" stroke="#2D2D2D" stroke-width="2" stroke-linecap="round" stroke-linejoin="round"/><path d="m33.439 36.447 1-5.229-5.669-1.323 1.146-2.99-4.463.298-1.145 2.99-3.882 2.275-4.79-1.25-2.022-3.45-.045-4.031-3.242-1.577v7.288l3.049 4.835 5.042 1.68 15.02.484Z" fill="#009379"/><path d="m29.693 23.559.476 3.778-4.031.044-.7-3.933-3.5-3-4-.5-2.5 2-.932 2.399-3.927-1.756 2.261-3.064 3.599-3.58 5.5-.5 4.199 2.5 3.555 5.612Z" fill="#009379"/><path d="M27.818 67.512a5.813 5.813 0 1 0 0-11.626 5.813 5.813 0 0 0 0 11.626ZM44.914 33.934 29.008 30.5M46.634 42.404 78.7 41.227l-24.467-5.282M20.744 36.022l21.778 1.384M21.003 36.029a10.196 10.196 0 1 1 1.87-19.9 10.197 10.197 0 0 1 6.038 4.944 10.21 10.21 0 0 1 .104 9.427" stroke="#2D2D2D" stroke-width="2" stroke-linecap="round" stroke-linejoin="round"/><path d="M19.872 31.761a5.813 5.813 0 1 0 0-11.626 5.813 5.813 0 0 0 0 11.626Z" stroke="#2D2D2D" stroke-width="2" stroke-linecap="round" stroke-linejoin="round"/><path d="M48.189 36.715v-.005l.003-.003.003-.002.003-.001h.006a.01.01 0 0 1 .003.003l.002.003V36.719l-.002.003-.003.002a.02.02 0 0 1-.004 0v.001h-.002l-.003-.001-.003-.002s-.002-.001-.002-.003l-.001-.004Z" fill="#2D2D2D" stroke="#2D2D2D" stroke-width="2"/></svg>