<svg width="31" height="30" fill="none" xmlns="http://www.w3.org/2000/svg"><rect x=".5" width="30" height="30" rx="15" fill="#2D2D2D"/><g clip-path="url(#a)" fill="#fff"><path d="M19.169 7H11.83A4.336 4.336 0 0 0 7.5 11.331v7.338A4.336 4.336 0 0 0 11.831 23h7.338a4.336 4.336 0 0 0 4.331-4.331v-7.338A4.336 4.336 0 0 0 19.169 7ZM15.5 19.375A4.38 4.38 0 0 1 11.125 15a4.38 4.38 0 0 1 4.375-4.375A4.38 4.38 0 0 1 19.875 15a4.38 4.38 0 0 1-4.375 4.375Zm4.48-7.718c-.713 0-1.293-.58-1.293-1.293s.58-1.293 1.293-1.293c.712 0 1.292.58 1.292 1.293s-.58 1.293-1.292 1.293Z"/><path d="M15.5 11.563A3.44 3.44 0 0 0 12.065 15a3.441 3.441 0 0 0 3.437 3.437A3.44 3.44 0 0 0 18.938 15a3.44 3.44 0 0 0-3.437-3.437ZM19.98 10.01a.355.355 0 1 0 0 .71.355.355 0 0 0 0-.71Z"/></g><defs><clipPath id="a"><path fill="#fff" transform="translate(7.5 7)" d="M0 0h16v16H0z"/></clipPath></defs></svg>