<svg width="31" height="30" fill="none" xmlns="http://www.w3.org/2000/svg"><mask id="b" style="mask-type:alpha" maskUnits="userSpaceOnUse" x="0" y="0" width="31" height="30"><g clip-path="url(#a)"><path d="M28.336 0H2.664A2.164 2.164 0 0 0 .5 2.164v25.672C.5 29.031 1.469 30 2.664 30h25.672a2.164 2.164 0 0 0 2.164-2.164V2.164A2.164 2.164 0 0 0 28.336 0ZM11.141 22.676H7.488v-10.99h3.653v10.99ZM9.315 10.184H9.29c-1.226 0-2.019-.844-2.019-1.898 0-1.079.817-1.9 2.067-1.9 1.25 0 2.019.821 2.043 1.9 0 1.054-.793 1.898-2.067 1.898Zm14.999 12.492H20.66v-5.88c0-1.478-.529-2.485-1.85-2.485-1.01 0-1.61.68-1.875 1.336-.097.234-.12.563-.12.891v6.138h-3.653s.048-9.96 0-10.99h3.653v1.555c.485-.749 1.354-1.814 3.292-1.814 2.404 0 4.206 1.571 4.206 4.947v6.302Z" fill="#fff"/></g></mask><g mask="url(#b)"><circle cx="15.5" cy="15" r="15" fill="#2D2D2D"/></g><defs><clipPath id="a"><path fill="#fff" transform="translate(.5)" d="M0 0h30v30H0z"/></clipPath></defs></svg>