<svg width="154" height="35" fill="none" xmlns="http://www.w3.org/2000/svg"><path d="M28.94 10.271a38.61 38.61 0 0 0-7.6-1.16c-1.26-.08-2.64-.12-4.19-.11-1.55.01-2.93 0-4.18.11a38.611 38.611 0 0 0-7.6 1.16c-2.65.7-4 9.94-4.36 12.74a1 1 0 0 0 .66 1.09s.8.32 2.22.73a44.57 44.57 0 0 0 13 1.91h.55c4.405.01 8.786-.633 13-1.91 1.42-.41 2.23-.73 2.23-.73a1 1 0 0 0 .66-1.09c-.37-2.83-1.73-12.07-4.39-12.74Z" fill="#2D2D2D"/><path d="M17.18 12.882c5.655 0 10.24-.627 10.24-1.4 0-.774-4.585-1.4-10.24-1.4s-10.24.626-10.24 1.4c0 .773 4.584 1.4 10.24 1.4Zm-6.559 4.49v-.774h1.446v4.374h-.864v-3.6h-.582Zm2.54 2.652c.384-.32.69-.586.918-.798.228-.216.418-.44.57-.672.152-.232.228-.46.228-.684 0-.204-.048-.364-.144-.48-.096-.116-.244-.174-.444-.174s-.354.068-.462.204c-.108.132-.164.314-.168.546h-.816c.016-.48.158-.844.426-1.092.272-.248.616-.372 1.032-.372.456 0 .806.122 1.05.366.244.24.366.558.366.954 0 .312-.084.61-.252.894-.168.284-.36.532-.576.744-.216.208-.498.46-.846.756h1.77v.696H12.85v-.624l.312-.264Zm5.245.948-1.128-1.416v1.416h-.84v-4.44h.84v2.526l1.116-1.41h1.092l-1.464 1.668 1.476 1.656h-1.092Zm2.838-3.378c.248 0 .466.05.654.15.188.096.336.222.444.378v-.474h.846v3.348c0 .308-.062.582-.186.822-.124.244-.31.436-.558.576-.248.144-.548.216-.9.216-.472 0-.86-.11-1.164-.33-.3-.22-.47-.52-.51-.9h.834a.612.612 0 0 0 .282.36.992.992 0 0 0 .534.138.815.815 0 0 0 .594-.222c.152-.144.228-.364.228-.66v-.516a1.27 1.27 0 0 1-.45.39 1.316 1.316 0 0 1-.648.156c-.28 0-.536-.072-.768-.216a1.53 1.53 0 0 1-.552-.606 2 2 0 0 1-.198-.906c0-.336.066-.634.198-.894.136-.26.318-.46.546-.6.232-.14.49-.21.774-.21Zm1.098 1.716c0-.204-.04-.378-.12-.522a.82.82 0 0 0-.324-.336.85.85 0 0 0-.438-.12.85.85 0 0 0-.756.45c-.08.144-.12.316-.12.516s.04.376.12.528a.921.921 0 0 0 .324.342c.136.08.28.12.432.12a.884.884 0 0 0 .438-.114.873.873 0 0 0 .324-.336c.08-.148.12-.324.12-.528Z" fill="#fff"/><path d="M56.94 15.48c0 .813-.187 1.56-.56 2.24-.373.667-.947 1.207-1.72 1.62-.773.413-1.733.62-2.88.62h-2.12V25h-3.42V10.96h5.54c1.12 0 2.067.193 2.84.58.773.387 1.353.92 1.74 1.6s.58 1.46.58 2.34Zm-5.42 1.76c.653 0 1.14-.153 1.46-.46.32-.307.48-.74.48-1.3s-.16-.993-.48-1.3c-.32-.307-.807-.46-1.46-.46h-1.86v3.52h1.86Zm10.62-3.54v2.84h4.58v2.64h-4.58v3.08h5.18V25h-8.6V10.96h8.6v2.74h-5.18Zm17.5-2.74v2.74h-3.72V25H72.5V13.7h-3.72v-2.74h10.86Zm21.037 0L97.017 25h-4.14l-2.24-9.24-2.32 9.24h-4.14l-3.56-14.04h3.66l2.02 10.22 2.5-10.22h3.76l2.4 10.22 2.04-10.22h3.68Zm8.355 14.18c-1.32 0-2.533-.307-3.64-.92a7.001 7.001 0 0 1-2.62-2.56c-.64-1.107-.96-2.347-.96-3.72 0-1.373.32-2.607.96-3.7a7.001 7.001 0 0 1 2.62-2.56c1.107-.613 2.32-.92 3.64-.92 1.32 0 2.527.307 3.62.92a6.658 6.658 0 0 1 2.6 2.56c.64 1.093.96 2.327.96 3.7 0 1.373-.32 2.613-.96 3.72a6.842 6.842 0 0 1-2.6 2.56c-1.093.613-2.3.92-3.62.92Zm0-3.12c1.12 0 2.014-.373 2.68-1.12.68-.747 1.02-1.733 1.02-2.96 0-1.24-.34-2.227-1.02-2.96-.666-.747-1.56-1.12-2.68-1.12-1.133 0-2.04.367-2.72 1.1-.666.733-1 1.727-1 2.98 0 1.24.334 2.233 1 2.98.68.733 1.587 1.1 2.72 1.1ZM125.275 25l-2.92-5.3h-.82V25h-3.42V10.96h5.74c1.107 0 2.047.193 2.82.58.787.387 1.373.92 1.76 1.6.387.667.58 1.413.58 2.24 0 .933-.267 1.767-.8 2.5-.52.733-1.293 1.253-2.32 1.56l3.24 5.56h-3.86Zm-3.74-7.72h2.12c.627 0 1.093-.153 1.4-.46.32-.307.48-.74.48-1.3 0-.533-.16-.953-.48-1.26-.307-.307-.773-.46-1.4-.46h-2.12v3.48Zm13.047 5.08h4.48V25h-7.9V10.96h3.42v11.4Zm11.371-11.4c1.48 0 2.773.293 3.88.88a6.202 6.202 0 0 1 2.56 2.48c.613 1.053.92 2.273.92 3.66 0 1.373-.307 2.593-.92 3.66-.6 1.067-1.46 1.893-2.58 2.48-1.107.587-2.393.88-3.86.88h-5.26V10.96h5.26Zm-.22 11.08c1.293 0 2.3-.353 3.02-1.06.72-.707 1.08-1.707 1.08-3s-.36-2.3-1.08-3.02c-.72-.72-1.727-1.08-3.02-1.08h-1.62v8.16h1.62Z" fill="#2D2D2D"/></svg>