<svg width="70" height="70" fill="none" xmlns="http://www.w3.org/2000/svg"><circle cx="35" cy="35" r="34" fill="#FF6250" stroke="#2D2D2D" stroke-width="2"/><path d="M49.5 30.97H19.53a.14.14 0 0 0-.14.14v6.95c0 .077.063.14.14.14H49.5a.14.14 0 0 0 .14-.14v-6.95a.14.14 0 0 0-.14-.14Z" fill="#fff"/><path d="M36.4 30.84a4.29 4.29 0 0 0 1.08 0c.5 0 1 0 1.53-.06l2.95-.07h.5c.56.085 1.13.085 1.69 0 .096-.01.194-.01.29 0 1.22.14 2.44 0 3.66 0h1.15c.21 0 .4 0 .56.13a1.4 1.4 0 0 1 .11.56V32.1c.005.166.032.331.08.49.017.123.017.247 0 .37v4.51c.034.282.01.568-.07.84a.36.36 0 0 1-.26.26c-.127.04-.258.067-.39.08H41.96c-1.33 0-2.67 0-4 .07s-2.47.1-3.71.1H30.39c-1.23 0-2.47.07-3.68 0-1.47 0-2.9 0-4.33.08-.27 0-.54 0-.78.07a2.84 2.84 0 0 1-1.87-.2c-.27-.18-.45-.37-.2-.58.25-.21.5-.33 1.42-.31.92.02 1.55-.06 2.34 0 .24-.01.477-.044.71-.1 1 0 2 0 3-.08h2.5c1.18 0 2.37 0 3.54-.07h1.11c1.08.06 2.16.06 3.24 0 1 .13 2 0 3 .08h1.3l1.77-.08h3.77c.243.014.487.014.73 0 .205-.018.409-.048.61-.09a.59.59 0 0 0 .37.07c.06-.1 0-.25 0-.37v-5.5a.736.736 0 0 0 0-.26c-.06-.06-.17 0-.25 0h-.79c-.247.046-.498.07-.75.07-1-.055-2-.055-3 0h-.59a.492.492 0 0 0-.45.06h-.57a1.26 1.26 0 0 0-.76.13c-.36 0-.58-.15-.94 0h-1.89c-.964-.03-1.93 0-2.89.09-.27.066-.55.066-.82 0h-.57a1.77 1.77 0 0 0-.53 0h-2.8a6.571 6.571 0 0 0-1 0 5.12 5.12 0 0 1-1.83 0 4.693 4.693 0 0 0-1.17 0 4.799 4.799 0 0 1-1.89 0 3.088 3.088 0 0 0-.71 0h-.1.11l-3.32.06h-1.17s-.07 0-.09.05v.39c0 1 .14 1.91.1 2.9a17.202 17.202 0 0 0 0 1.9 1.35 1.35 0 0 1-.07.64 1.45 1.45 0 0 1-.09.22h-.4v-.11c-.09-.29-.18-.57-.28-.87-.1-.3-.06-.92-.09-1.4a2.11 2.11 0 0 1 0-.75 2.16 2.16 0 0 0 0-.76c-.12-.56-.11-1.23-.2-1.8a1.7 1.7 0 0 0 .12-1V31a.169.169 0 0 1 .06-.121.17.17 0 0 1 .13-.039c.18-.015.36-.015.54 0 .337.02.67.067 1 .14l.5-.18a.61.61 0 0 0 .67.19 7.591 7.591 0 0 1 2.61-.07l.39-.21.47.19a4.58 4.58 0 0 1 1.23 0c.12.012.24.012.36 0h.5a.89.89 0 0 1 .53 0h.23-.24c.06-.11.3-.14.59-.15.46 0 1 0 1.37-.1.432-.01.863-.046 1.29-.11.246-.027.494-.027.74 0a7.576 7.576 0 0 1 2-.17l.92.29h1.2l.05.18Z" fill="#fff"/><path d="M19.21 31.69c-.06.17-.11.37-.17.51v-.07c0-.1 0-.31.06-.42.024-.083.058-.164.1-.24l.01.22ZM36.84 30.68l.1-.06a.54.54 0 0 1 .15 0v.05l-.25.01ZM36.41 30.84l.09-.05.08.03-.18.02h.01ZM46 31.66h.08-.09s.02.01.01 0ZM35.17 30.82l.15-.05.06.05h.01-.23.01ZM31.83 29.96l.05.01-.07.01.02-.02ZM40.99 31.68l.2.07h.01l-.2-.08-.01.01ZM43.46 31.65h-.2l.22.01-.02-.01ZM43.69 31.59l-.23.06.02.01.22-.07h-.01ZM41.62 37.86l.22.01v-.01h-.23.01Z" fill="#fff"/><path d="M37.98 19.46h-6.95a.14.14 0 0 0-.14.14v29.97c0 .077.063.14.14.14h6.95a.14.14 0 0 0 .14-.14V19.6a.14.14 0 0 0-.14-.14Z" fill="#fff"/><path d="M30.77 32.7a3.582 3.582 0 0 0 0-1.09c0-.49 0-1-.06-1.52l-.07-3v-.5c.085-.56.085-1.13 0-1.69a1.419 1.419 0 0 1 0-.29c.13-1.22 0-2.44 0-3.67V19.8c0-.21 0-.4.13-.56.177-.075.368-.112.56-.11h.71a2.41 2.41 0 0 0 .48-.08c.126-.017.254-.017.38 0h4.5a2.05 2.05 0 0 1 .84.07.36.36 0 0 1 .26.26c.044.126.074.257.09.39v1.51l.05 3.26v2.55c0 1.33 0 2.67.07 4s.1 2.47.11 3.71V38.66c0 1.23.07 2.47 0 3.68a38.949 38.949 0 0 0 .08 4.33c0 .26 0 .54.06.78a2.84 2.84 0 0 1-.2 1.87c-.18.27-.37.45-.58.2-.21-.25-.32-.5-.31-1.42.01-.92-.06-1.55 0-2.34a3.114 3.114 0 0 0-.1-.71c0-1 0-2-.08-3-.02-.36-.02-.72 0-1.08v-1.42c0-1.18 0-2.37-.08-3.55v-1.1a26.941 26.941 0 0 0 0-3.24c.13-1 0-2 .08-3 .02-.363.02-.727 0-1.09v-.23c0-.59-.05-1.2-.08-1.77v-2.21c0-.52-.05-1 0-1.56a4.656 4.656 0 0 0-.09-1.34.67.67 0 0 0 .08-.37c-.11-.06-.26 0-.37 0h-5.51a1.108 1.108 0 0 0-.26 0v1.06c.038.248.058.499.06.75-.055 1-.055 2 0 3v.61c-.05.24 0 .37.07.44v.57a1.2 1.2 0 0 0 .12.76c0 .36-.14.58-.05.94v1.89a25 25 0 0 0 .09 2.89c.065.27.065.55 0 .82 0 .07.06.46 0 .57a1.77 1.77 0 0 0 0 .53v3.8a5.35 5.35 0 0 1 0 1.83 4.23 4.23 0 0 0 0 1.17 4.798 4.798 0 0 1 0 1.89 3.81 3.81 0 0 0 0 .71l-.05.1.05-.11.05 3.32v1.17s0 .07.05.08H32.19c1 0 1.91-.14 2.9-.1.633.035 1.267.035 1.9 0 .216-.029.435-.005.64.07.076.024.15.054.22.09h.05v.69-.29h-.11l-.87.28-1.4.09a2.05 2.05 0 0 1-.74 0 2.218 2.218 0 0 0-.77 0c-.56.12-1.23.11-1.8.2a1.7 1.7 0 0 0-1-.12h-.3a.17.17 0 0 1-.154-.121.17.17 0 0 1-.006-.069c-.01-.18-.01-.36 0-.54.025-.336.072-.67.14-1l-.17-.5a.61.61 0 0 0 .18-.67 7.6 7.6 0 0 1-.07-2.61l-.2-.39c.06-.16.12-.3.18-.47a4.21 4.21 0 0 1 .06-1.23c.011-.12.011-.24 0-.36v-.5a.89.89 0 0 1 0-.53l.05-.24-.05.25c-.1-.06-.13-.3-.15-.59 0-.46 0-1-.1-1.37 0-.432-.037-.864-.11-1.29a5.311 5.311 0 0 1 0-.74 7.58 7.58 0 0 1-.17-2c.1-.3.2-.61.29-.92v-1.21l.14.01ZM31.63 49.89c.16.06.36.11.5.17h-.07c-.14.01-.28.01-.42 0a1.154 1.154 0 0 1-.24-.1l.23-.07Z" fill="#fff"/><path d="m30.61 32.3-.06-.1a.622.622 0 0 1 0-.16h.05l.01.26ZM30.69 47.98a.25.25 0 0 1 0-.08v.08ZM29.91 26.38v.08-.1a.33.33 0 0 0 0 .02ZM30.77 32.69l-.06-.1.03-.08.03.19v-.01ZM31.59 23.1v-.08.08s.01-.01 0 0ZM30.75 33.92l-.05-.15.05-.05v-.01l-.01.23.01-.02ZM29.89 37.27l.01-.05.01.06-.02-.01ZM31.61 28.1l.07-.2v-.01l-.08.2.01.01ZM31.58 25.63v.2l.01-.21-.01.01Z" fill="#fff"/><path d="m31.52 25.4.06.23.01-.01-.07-.23v.01Z" fill="#fff"/></svg>