<svg width="134" height="35" fill="none" xmlns="http://www.w3.org/2000/svg"><path fill-rule="evenodd" clip-rule="evenodd" d="M117.682 10.327a1.13 1.13 0 0 0-1.13-1.133h-1.675c-.627 0-1.131.51-1.131 1.135v17.518a1.13 1.13 0 0 0 1.131 1.133h1.676c.625 0 1.129-.51 1.129-1.134V10.327Zm2.136.466v.833c0 .343.281.622.626.622h11.555a.953.953 0 0 0 .955-.952v-1.41c0-.528-.432-1.004-.955-.952 0 0-11.172 1.096-11.53 1.136a.714.714 0 0 0-.651.723Zm-9.356 18.188c-2.874 0-4.684-2.18-4.684-4.607l-.002-7.009h-.822a.791.791 0 0 1-.793-.792V15.4c0-.438.356-.791.796-.791l.819.001-.001-4.31c0-.61.491-1.104 1.103-1.104h1.634c.609 0 1.103.498 1.103 1.108v4.307h2.546c.438 0 .796.351.796.79v1.174c0 .439-.356.791-.793.791h-2.549l.003 6.483c0 1.273.771 2.141 2.148 2.141h.232c.476 0 .864.383.864.86v1.272a.86.86 0 0 1-.862.86h-1.538Zm-26.92-14.876c-4.648 0-7.253 3.636-7.253 7.469 0 4.084 2.79 7.679 7.284 7.679 3.075 0 6.105-1.62 6.678-4.28.077-.359-.164-.83-.67-.832l-2.198.001c-.398 0-.724.191-.92.48-.63.92-1.55 1.41-2.911 1.41-1.925 0-3.259-1.516-3.36-3.197h9.343c.86 0 1.246-.468 1.246-1.262 0-3.735-2.213-7.468-7.24-7.468Zm0 3c1.715 0 3.196 1.22 3.346 2.871H80.22c.15-1.651 1.607-2.872 3.322-2.872Zm42.575-3c-4.648 0-7.255 3.636-7.255 7.469 0 4.084 2.792 7.679 7.284 7.679 3.075 0 6.106-1.62 6.678-4.28.078-.359-.163-.83-.669-.832l-2.197.001c-.4 0-.725.191-.921.48-.63.92-1.55 1.41-2.911 1.41-1.926 0-3.259-1.516-3.36-3.197h9.343c.86 0 1.246-.468 1.246-1.262 0-3.735-2.214-7.468-7.238-7.468Zm0 3c1.714 0 3.196 1.22 3.345 2.871h-6.668c.15-1.651 1.606-2.872 3.323-2.872Z" fill="#2D2D2D"/><path fill-rule="evenodd" clip-rule="evenodd" d="M102.634 9.39H72.37c-.688 0-1.243.559-1.243 1.247l.103 11.886s-6.52-11.78-6.86-12.38c-.32-.566-1.007-1.087-1.958-1.087h-2.488c-.689 0-1.245.559-1.245 1.247v17.43c0 .689.557 1.247 1.245 1.247h1.596a1.247 1.247 0 0 0 1.245-1.25l-.1-12.218s6.583 11.896 6.865 12.365c.38.634 1.023 1.103 1.954 1.103h2.286c.69 0 1.245-.558 1.245-1.246l-.002-15.39h27.622a.844.844 0 0 0 .786-.522.844.844 0 0 0 .065-.325v-1.259a.852.852 0 0 0-.852-.848Z" fill="#2D2D2D"/><path fill-rule="evenodd" clip-rule="evenodd" d="M97.735 16.959c1.316 0 2.3.477 2.655 1.302.17.397.5.473.952.473h1.81a.657.657 0 0 0 .641-.648c0-2.104-2.507-3.983-6.06-3.983-3.675 0-6.088 1.752-6.088 4.54 0 2.133 1.685 3.403 3.758 3.945.945.248 2.558.645 3.343.851.847.223 1.604.48 1.604 1.207 0 1.144-1.208 1.534-2.524 1.534-1.249 0-2.492-.558-2.848-1.448-.208-.516-.568-.591-1.116-.591h-1.84c-.322 0-.692.276-.692.695v.236c0 2.037 2.732 4.169 6.499 4.169 2.671 0 6.394-1.11 6.394-4.693 0-2.076-1.388-3.513-3.647-4.086-.884-.224-3.007-.764-3.47-.884-.823-.213-1.59-.482-1.59-1.187 0-1.069.987-1.432 2.219-1.432ZM30.742 5.363a.606.606 0 1 0 0-1.213.606.606 0 0 0 0 1.213ZM22.596 4.29a.51.51 0 1 0 0-1.02.51.51 0 0 0 0 1.02Zm-6.107 12.48-.248-.267c.693-.644 1.426-1.67 1.545-2.272.11-.56.916-.472.763.138-.195.779-1.148 1.72-2.06 2.4ZM11.322 4.5c-1.275.552-1.462 1.86-.567 2.644 1.078.945 2.857.122 2.686-1.325 1.446.074 2.379-1.42 2.149-2.47.643-.55.707-1.728-.065-2.19-.827-.496-1.606-.306-2.102.65-1.325-.096-2.595.946-2.1 2.691l-.615-.268c-.809-1.692.608-3.42 2.346-3.022a2.086 2.086 0 0 1 3.042-.867c1.115.676 1.351 2.42.165 3.265.56 1.627-.556 2.957-2.253 2.805-.199 2.093-2.173 2.363-3.449 1.369-.72-.56-1.014-1.339-1.153-1.925-.146-.621-.146-1.177-.759-1.816-.461-.483-1.287-.467-1.287-.467 0-1.52-1.422-2.911-3.188-2.238-.626-.539-1.399-.592-1.953.074-.322.387-.5 1.405.493 1.87-.05 1.386 1.005 2.271 2.55 2.148.06.737.877 1.421 1.6 1.519l-.006.37c-.772-.075-1.19.195-1.704.833-1.816-.086-3.088.722-3.035 2.024-1.276.242-1.514 1.578-.791 2.29.724.711 1.784.432 2.146-.417 1.287.245 2.424-.678 2.476-1.742 1.202 0 1.728-.475 1.925-1.58l.454.036c.134 1.19-.417 2.32-1.852 2.186-.037 1.421-1.416 2.216-2.703 1.725-.6 1.128-1.977 1.58-3.132.478-1.117-1.063-.709-2.885.75-3.326.034-1.393 1.063-2.717 3.062-2.207 0 0 .258-.622.883-.659-.417-.171-.732-.401-.819-.83-1.508.321-2.789-1.067-2.446-2.465C.71 2.947.686 1.604 1.361.804 2.065-.028 3.237-.212 4.285.685c1.776-.984 3.783.221 3.66 2.244 1.242-.083 1.996 1.003 1.858 2.133.204-.498.444-.729.903-.829l.615.268Z" fill="#2D2D2D"/><path fill-rule="evenodd" clip-rule="evenodd" d="m14.372 2.074.3.214c-.582 1.23-1.613 2.534-2.496 3.252l-.337-.254c.626-1.018 1.969-2.698 2.533-3.212Zm-8.688 6.75.203.3c-.736.753-2.097 1.759-2.82 2.108l-.282-.306c.699-.754 2.035-1.742 2.9-2.103Zm1.76-3.653-.355.44c-.963-.632-2.864-2.33-3.292-2.942l.3-.306c.92.466 2.715 2.067 3.347 2.808ZM5.657 21.283c.11.551.018 1.161.515 1.757.175.21 1.14 1.479 1.839 2.134-.95.375-2.85 1.147-4.218 1.319-.274.035-.582.227-.84.374-.171.293-.348.815-.422 1.405-.053.422-.046.891-.046 1.37 0 .422.224 1.748.695 2.64.473.89.926 1.289 1.484 1.55.11-.05.354-.086.733-.094 1.033-.024 1.841.547 2.198 1.037.136.188.41.225.77.225.833 0 1.75-.274 2.62-.606.186-.153.71-.502 1.226-.907.514-.404 3.383-2.837 4.653-3.452.668.363 1.766.829 2.9.829.065 0 .283.003.515-.049.354-.08.808-.238 1.379-.35 1.023-.2 2.222-.375 2.572-.37.941.015 3.699.087 4.353.087.685 0 1.663-.06 2.037-.097.577-.19 1.864-.547 3.096-1.116 1.23-.544 3.819-2.341 4.242-2.752.206-.184.388-.386.523-.565.05-.07.07-.098.07-.153l-.015-1.816s.619-.686.855-.924c.023-.022.025-.054.02-.076-.105-.353-.212-1.448-.15-2.56l-.627-.292a6.416 6.416 0 0 1-1.002 3.29c-.931.147-2.71.698-3.35 1.427l.353.1c.6-.331 1.244-.564 1.98-.564.65 0 .937.172.937.354 0 .128-.123.436-.17.533-.056.111-.093.253-.203.372a12.164 12.164 0 0 1-3.082 2.439c-.816.457-1.587.764-2.792 1.105-.36.102-.855.248-1.176.36-.454-.015-2.827-.084-4.212-.084-1.385 0-4.242.202-5.15.431-.412.104-.515.27-.994.27-.894 0-2.068-.454-2.789-.803-.104.03-.365.146-.625.276-.512.255-1.65 1.833-2.31 1.356-.339.692-1.797 1.348-2.296 2.065.055-.375.644-2.813.7-3.3.01-.087.016-.157-.038-.249-.533-.89-2.021-1.454-2.86-1.618-.247-.049-.368-.082-.533-.12l-1.324-.4-1.228.4 1.417.271-1.798 1.192c.312-.12 2.25-.657 2.393-.7.158-.047.37-.093.601-.013.264.093 1.011.264 1.456.418.262.09.69.571.8.827.045.107.063.331.092.828.018.313-.062.748-.138 1.086-.198.884-.6 1.574-.727 1.821-.175.34-.417.45-.656.562-.392.184-.871.3-1.404.307-.365.004-.61-.015-.766-.227-.491-.663-1.704-1.306-2.943-1.066-.76-.46-1.513-1.944-1.513-3.126 0-.708.358-1.825.55-2.386 1.237-.165 3.712-1.108 4.916-1.655.252-.013.945-.258 1.606-.258 1.619 0 3.225 1.416 4.2 2.373.16-.263.46-.662 1.287-.662 1.146 0 1.802 1.042 2.13 2.114l.598-.434a3.39 3.39 0 0 0-.907-1.767c-.395-.396-1.149-.725-1.738-.725-.355 0-.723.08-.955.08-.82 0-1.153-.366-1.758-.782-.652-.45-1.867-1.105-2.734-1.105-.558 0-.809.219-1.27.22-.676.004-.928-.277-1.252-.68-.142-.178-.828-.786-1.011-1.03-.105-.141-.292-.716-.36-1.004l-.929-.667Z" fill="#2D2D2D"/><path fill-rule="evenodd" clip-rule="evenodd" d="M6.588 21.95c.197.21.387.442.632.63.238.18.538.336.82.496.397.225.848.483 1.296.625.392.118.901.167 1.378.167.681 0 1.484-.14 2.15.17.446.208.476.679.83.816.552.215 2.085.265 2.934.265 1.683 0 3.504-.213 4.58-.47l-.525-.579c-.744.119-2.928.357-3.93.357-1.412 0-2.746-.226-2.746-.81 0-.404.435-.988 1.262-.988.89 0 2.233.537 2.48.61.25.075.35.055.507-.017l.52-.269c-.69-.321-3.095-1.148-3.932-1.148-.397 0-.611.057-.868.388-.322.414-1.18.79-2.55.79-.752 0-1.827-.133-2.063-.23-.413-.17-1.22-.639-1.738-1.012-.666-.48-1.246-1.014-1.646-1.636a1.09 1.09 0 0 1-.174-.599c.001-.162.047-.312.063-.431.12.165.248.285.413.44.723.704 1.791 1.233 2.889 1.443.313.06.59.107.9.107.469 0 .901-.25 1.176-.497l-.431-.5c-.139.041-.427.041-.617.041-1.593 0-3.616-1.043-4.082-2.248-.046-.118-.102-.184-.055-.294a2.94 2.94 0 0 0 .137-.561c.094.107.286.268.53.426.593.38 1.723.906 1.944 1.044.57-.164.998-.355 1.336-.53a2.853 2.853 0 0 1 1.31-.327c1.164 0 2.503.664 3.76 1.283l.858-.338c-1.115-.784-3.543-1.882-4.892-1.882-.796 0-1.545.583-2.078.583-.654 0-2.529-.914-2.529-1.676 0-.586 1.213-.918 3.164-1.159-.34.502-.659 1.017-.957 1.544l.497.276c3.055-4.425 6.234-7.298 8.907-9.049.971-.636 1.193-1.008 1.532-1.702.828-1.693 1.61-2.994 2.968-2.994.635 0 1.153.355 1.508.797l.984.294-.996.674 1.018.405c-1.328.372-3.143 1.664-3.877 3.56-1.415.075-2.098 1.22-2.56 2.18-.313.648-.809.906-1.532 1.396l-5.787 4.034.796.11 5.346-3.58c1.054-.712 1.556-1.236 1.808-1.742.497-.991 1.03-1.728 2.079-1.728.515 0 1.067.22 1.508.637l.938.307-1.024.626.858.526c-2.452.769-3.972 2.526-4.855 5.885l.65.148c.326-1.113.647-2.133 1.221-3.033 1.422-.017 2.86-.069 4.272-.069 3.768 0 6.896.16 8.584.656l-.598-1.037c-1.806-.307-4.426-.466-7.986-.466-1.194 0-2.403.045-3.604.057.775-.82 1.891-1.51 3.61-2.043l-1.22-.672 1.355-.75-1.846-.687c-.323-.29-.724-.556-1.229-.683.59-1.816 2.604-2.878 4.534-3.609l-1.352-.55 1.364-.747-2.1-.67c-.547-.644-1.076-.938-1.885-.938-1.947 0-2.765 1.691-3.537 3.19-.406.789-.664 1.12-1.354 1.573-1.497.98-3.406 2.477-5.228 4.395-.952-.686-2.897-2.693-3.426-3.787-.208.257-.414.818-.414.818.199.21 2.49 2.525 3.342 3.505l-.193.216c-.907.18-3.266.407-4.068.298l-.45.8c.599-.06 2.942-.336 3.914-.393-.298.361-.587.73-.865 1.106-3.014.342-5.026.96-5.026 2.073 0 .184.073.392.073.588 0 .466-.174.638-.505.846-.216.136-.23.23-.138.359.093.13.558.818.558.953 0 .222-.222.447-.401.646-.157.175-.15.221-.028.442l.874 1.857.93.672Zm37.309-10.337a4.024 4.024 0 0 0-.505.648l-.485-.682c1.62-2.16 5.9-3.173 8.412-3.351V7.069c-.319.099-.662.21-.98.285-.45.108-.864.209-1.215.2-.35-.01-.635-.15-.766-.337-.337-.481-.024-1.208 1.08-1.888l-.871-.724c-.672.871-1.333 1.832-2.006 2.406-.611.522-1.252.782-1.77.396-.278-.208-.383-.303-.41-.846.036-.798.522-2.017.95-2.802l-1.03-.12c-.184 1.2-.677 2.226-1.204 3.071-.657 1.055-1.505 1.795-2.377 2.4l-.572-.563c.704-.415 1.585-1.091 2.192-2.023.704-1.082 1.274-2.42 1.275-3.635l2.98.282c-.419.532-1.11 1.745-1.372 2.616-.136.455-.13.816.035.94.316.236.87-.141 1.406-.717.757-.813 1.498-2.04 1.825-2.477l2.155 1.787c-.958.508-1.886 1.087-1.701 1.413.169.297.782.207 1.454.001a7.884 7.884 0 0 0 1.598-.694v2.912c-1.038-.014-2.797.18-4.491.694.402.568 1.559.777 2.294.878l-.369 2.364c-1.854-.78-3.285-1.232-5.532-1.275l.743-.639c1.657.034 3.317.515 4.258.989l.134-.895c-.847-.112-1.915-.593-2.367-1.14-.737.278-1.436.623-2.025 1.046l-.743.639Z" fill="#2D2D2D"/><path fill-rule="evenodd" clip-rule="evenodd" d="m35.018 19.122.69-1.49a26.599 26.599 0 0 1-2.22-3.04l-.598-1.037c-1.38-2.621-.877-3.874-1.614-5.027-.608-.953-3.565-.36-4.055-.257l.855-1.417-1.686.134 1.428-1.697c.157-.22.23-.423.395-1.011.253-.895 1.021-2.422 3.271-2.422 2.498 0 3.272 2.021 4.361 2.9a67.002 67.002 0 0 1 4.301 3.788l.572.564c.738.754 1.493 1.53 2.189 2.469l.485.681c3.007 4.39 6.742 12.78 8.394 16.622.16.371.273.75.373 1.036a42.984 42.984 0 0 1-3.63-2.265l-.741-.522a55.01 55.01 0 0 1-1.38-1.027l-.761-.599a48.67 48.67 0 0 1-1.355-1.125l1.503 8.755c.11.516.55.43.907-.023.355-.454.49-.578.355-1.178l-1.41-6.429.762.599 1.352 5.463c.13.492.339.648.915.673.577.025.7-.196.577-.575l-1.465-4.534.742.522 1.386 4.072c.355 1.043 0 1.165-.626 1.165-.625 0-1.188-.147-1.532.074-.343.22-.774.823-1.288 1.351-.455.465-1.116.344-1.25-.529l-1.662-10.052a37.778 37.778 0 0 1-3.033-3.04 38.926 38.926 0 0 1-1.264-.571l-.627-.293a5.986 5.986 0 0 0-.452-.194c-.46.552-.9 1.168-1.415 1.61-.274.235-.46.369-.865.369-.125 0-.28-.002-.423-.084-.154-.086-.299-.26-.46-.505-.122-.187-.302-.425-.46-.69-.328-.55-.683-1.242-1.002-1.802-.358-.63-.666-1.098-.708-1.176a1.243 1.243 0 0 0-.238-.267c-.176.285-.305.836-.305 1.14l-.625-.212c.083-.413.249-.947.34-1.204 0-.221-.248-.516-.45-.516-.286 0-.58.313-.727.911l-.634.276c.074-.966.404-2.023 1.36-2.023.773 0 1.252.59 1.62 1.14a71.42 71.42 0 0 0 1.828 2.519l.479.606c.083.378.243.597.321.718.166.258.35.24.598.009.113-.104.478-.4.83-.768.307-.32.605-.709.725-.906.35.158 1.004.47 1.53.702-2.257-2.782-4.418-6.157-5.356-8.453-.388-.949.37-1.267.736-.332.993 2.539 3.899 7.026 6.032 9.38 2.466 2.72 6.989 6.658 9.931 8.24-.426-.833-.99-2.027-1.64-3.412-3.579-2.025-7.196-5.742-8.882-8.935l.741.085c1.57 2.775 5.318 6.477 7.532 7.553-2.024-4.296-4.66-9.74-6.715-12.083-2.552-2.905-5.337-5.151-6.668-6.32-1.311-1.153-1.852-2.6-3.74-2.6-1.557 0-2.376 1.122-2.688 2.254-.065.22-.1.358-.257.588l-.736.883 1.59-.193-.92 1.287s2.494-.56 3.367.625c.94 1.278.333 2.712 1.875 5.5.679 1.225 2.32 3.428 2.868 3.917l-1.075 2.26-.478-.605Zm-24.505.386-.377-.256a4.562 4.562 0 0 1 1.038-.627c.2-.082.415-.127.631-.132.423 0 .787.176 1.143.366.562.3 1.194.651 1.678.651.184 0 .362-.043.57-.043.479 0 .938.215 1.202.215.16 0 .27-.144.375-.294.263-.38.627-.662 1.093-.856.5-.209 1.1-.292 1.754-.292.515 0 1.009.074 1.266.13 0 0-.393.473-.491.577-.52 0-1.51-.017-2.146.24-.39.157-.53.384-.53.708 0 .468.523.652 1.106.829.344.104.73.13 1.055.13.4 0 1.168-.151 1.926-.318.916-.202 1.767-.442 2.016-.534l.33.594c-1.019.345-2.06.672-3.028.869a7.875 7.875 0 0 1-1.532.18c-.777 0-1.62-.326-2.312-.656-.585-.279-1.106-.554-1.572-.554-.524 0-1.016.181-1.502.458-.237.136-.953.63-1.591.88-.49.195-.889.302-1.385.302-.442 0-.706-.063-.935-.24l.769-.471c.099.097.276.115.386.115.11 0 .243-.014.544-.139.172-.073.423-.226.57-.321.304-.196.404-.311.524-.405.232-.184.318-.428.022-.692a3.11 3.11 0 0 0-.472-.367c-.266-.159-.458-.314-.938-.314a2.56 2.56 0 0 0-1.187.267Z" fill="#2D2D2D"/><path fill-rule="evenodd" clip-rule="evenodd" d="M21.217 19.813s-.457-.127-.617-.14a4.393 4.393 0 0 1 1.03-.982c.624-.422 1.277-.653 2.265-.713.268-.016.816-.069 1.122-.056.275.013.742.031 1.17.11.304.057.587.142.822.178.144.022.642.015.815-.012.7-.11 1.54-.38 1.981-.621l.184.672c-.945.482-2.012.946-2.988.946-.498 0-1.026-.037-1.518-.083-.868-.083-1.62-.199-1.878-.199-.703 0-1.715.327-2.388.9Zm-.697 3.738-.889-.407c1.232-.623 3.114-1.249 3.886-1.373.773-.12 1.656-.214 2.164-.385.233.588.693 1.218 1.356 1.218.241 0 .638-.182 1.037-.36.449-.197.9-.413 1.132-.517.253-.112 1.07-.47 1.765-.78.346-.158.691-.32 1.034-.488l.466.253c-.14.612-.373 1.365-.635 1.904a2.306 2.306 0 0 1-.316.511c-.202.228-.53.532-.956.834-.467.332-1.035.67-1.638 1.017-.47.271-.942.545-1.421.765l-.249-.451c.739-.418 1.49-.947 2.15-1.436.311-.23.614-.464.83-.663.16-.146.26-.267.34-.385.196-.288.516-.852.613-1.122-.275.135-1.317.626-1.783.87a61.19 61.19 0 0 1-1.858.938c-.376.177-.712.275-.953.275-.534 0-.776-.385-.907-.617-.337-.602-.698-.657-1.65-.67-1.103-.013-2.617.443-3.518 1.069Zm5.183-2.773s-.129-.525-.19-.716c0 0 .153-.05.355-.05.331 0 1.149.092 1.488.092 1.277 0 1.748-.402 2.123-.74.32-.288.649-.524 1.518-.524.766 0 1.646.31 1.897.432l-.055.698a2.949 2.949 0 0 0-1.343-.348c-.317 0-.602.025-.803.13-.226.116-.363.292-.576.466a3.225 3.225 0 0 1-.938.513c-.404.15-.904.251-1.65.251-.986-.001-1.52-.166-1.826-.204Z" fill="#2D2D2D"/><path fill-rule="evenodd" clip-rule="evenodd" d="m17.613 26.045.59-.244c.539.21 1.319.446 1.861.446.326 0 .596-.117.818-.216.174-.078 2.135-1.04 3.109-1.393.31-.112.623-.175.776-.175.233 0 .247.105.312.212.184.294 1.633 2.361 1.78 2.52 1.227-.377 2.485-.93 3.211-1.626.756-.73 1.384-1.573 1.99-2.226.235-.252.524-.48.667-.557.628-.334 2.581-.362 3.403-.325l-.487.689c-1.447 0-2.257.149-2.621.423-.154.116-.386.35-.608.638-.494.645-1.034 1.526-1.25 1.699.424.293.887.55 1.622.55 1.226 0 2.104-.766 2.585-1.2l.412.246c-.304.395-.653.8-1.097 1.102-.492.335-1.113.551-1.48.653-.712-.134-2.278-.451-2.646-.524-1.354.552-3.561 1.444-4.302 1.668a2.884 2.884 0 0 1-.5.079c-.586.032-1.4.027-2.143.019-.527-.007-1.025-.004-1.275-.05l-.654-.682c.577.11.802.143 1.34.143 1.276 0 2.096-.213 2.367-.282.227-.059.265-.19.197-.396-.107-.327-.296-.638-.584-.97a4.726 4.726 0 0 0-.643-.583c-.175-.12-.346-.15-.828.014-.446.152-1.83.901-2.427 1.219-.295.157-.524.203-1.054.077-.56-.132-1.902-.622-2.44-.948Zm3.839-15.363a.502.502 0 1 0 0-1.004.502.502 0 0 0 0 1.004Z" fill="#2D2D2D"/></svg>