<svg width="73" height="47" fill="none" xmlns="http://www.w3.org/2000/svg"><path d="M67.052 18.386c2.205-2.354 3.33-5.672 2.726-9.096A10.602 10.602 0 0 0 57.492.686a10.602 10.602 0 0 0-8.604 12.287c.126.71.325 1.397.573 2.053l-27.566 4.86c.02-.703-.038-1.414-.163-2.124A10.602 10.602 0 0 0 9.445 9.158 10.602 10.602 0 0 0 .842 21.445c.604 3.424 2.785 6.16 5.673 7.615-2.206 2.354-3.33 5.673-2.727 9.097a10.602 10.602 0 0 0 12.287 8.603 10.602 10.602 0 0 0 8.603-12.287 11.344 11.344 0 0 0-.573-2.053l27.566-4.86c-.02.703.039 1.414.164 2.125a10.602 10.602 0 0 0 12.287 8.603 10.602 10.602 0 0 0 8.603-12.286 10.617 10.617 0 0 0-5.673-7.616Z" fill="#2D2D2D"/></svg>