<svg width="30" height="30" fill="none" xmlns="http://www.w3.org/2000/svg"><mask id="b" style="mask-type:alpha" maskUnits="userSpaceOnUse" x="0" y="0" width="30" height="30"><g clip-path="url(#a)"><path d="M27.836 0H2.164A2.164 2.164 0 0 0 0 2.164v25.672C0 29.031.969 30 2.164 30h25.672A2.164 2.164 0 0 0 30 27.836V2.164A2.164 2.164 0 0 0 27.836 0ZM21.85 11.695c.006.148.01.296.01.445 0 4.55-3.463 9.796-9.796 9.796a9.746 9.746 0 0 1-5.278-1.546c.27.032.544.047.822.047 1.613 0 3.097-.55 4.276-1.474a3.447 3.447 0 0 1-3.217-2.39 3.425 3.425 0 0 0 1.555-.06 3.444 3.444 0 0 1-2.762-3.375v-.044c.465.258.995.414 1.56.43a3.44 3.44 0 0 1-1.066-4.596 9.775 9.775 0 0 0 7.097 3.598 3.444 3.444 0 0 1 5.867-3.14 6.906 6.906 0 0 0 2.186-.836 3.456 3.456 0 0 1-1.514 1.905 6.866 6.866 0 0 0 1.977-.543 6.994 6.994 0 0 1-1.717 1.783Z" fill="#fff"/></g></mask><g mask="url(#b)"><circle cx="15" cy="15" r="15" fill="#2D2D2D"/></g><defs><clipPath id="a"><path fill="#fff" d="M0 0h30v30H0z"/></clipPath></defs></svg>