<svg width="142" height="35" fill="none" xmlns="http://www.w3.org/2000/svg"><path d="M1.536 7.647S4.989 21.795 5.54 24.092c.643 2.68 1.802 3.667 5.143 3.002l2.156-8.772c.546-2.18.913-3.733 1.264-5.95h.062c.247 2.24.598 3.777 1.048 5.957 0 0 .878 3.982 1.327 6.074.45 2.091 1.705 3.409 4.978 2.691l5.137-19.446h-4.148l-1.754 8.408c-.471 2.447-.9 4.36-1.229 6.598h-.059c-.3-2.216-.68-4.053-1.16-6.437l-1.826-8.569h-4.322l-1.953 8.353c-.553 2.538-1.071 4.588-1.4 6.75h-.06a237.24 237.24 0 0 0-1.272-7.07s-1.16-5.973-1.568-8.033l-4.368.001v-.002Zm39.54 0v19.446h3.948V7.646h-3.949Zm55.616 0v14.345c0 1.978.373 3.364 1.169 4.21.696.741 1.842 1.22 3.215 1.22 1.167 0 2.316-.22 2.858-.422l-.051-3.087c-.403.1-.867.179-1.5.179-1.346 0-1.797-.861-1.797-2.637v-5.489h3.439v-3.72h-3.439V7.646h-3.894ZM32.25 12.155c-2.454 0-4.402.689-5.464 1.303l.777 2.66c.972-.612 2.52-1.12 3.985-1.12 2.426-.005 2.822 1.373 2.822 2.256v.21c-5.286-.009-8.624 1.82-8.624 5.549 0 2.276 1.7 4.41 4.655 4.41 1.819 0 3.34-.726 4.253-1.889h.089s.604 2.525 3.93 1.56c-.174-1.051-.23-2.172-.23-3.521v-5.195c0-3.31-1.415-6.223-6.193-6.223Zm23.623 0c-2.472 0-3.582 1.252-4.255 2.315h-.059v-1.985h-3.768v14.609h3.97v-8.568c0-.401.045-.826.185-1.196.33-.862 1.132-1.871 2.413-1.871 1.602 0 2.352 1.354 2.352 3.308v8.327h3.965v-8.672c0-.383.053-.845.166-1.184.326-.981 1.191-1.78 2.382-1.78 1.624 0 2.404 1.331 2.404 3.631v8.005h3.968v-8.605c0-4.537-2.304-6.334-4.905-6.334-1.152 0-2.061.289-2.883.793-.691.425-1.31 1.027-1.85 1.82h-.059c-.629-1.574-2.105-2.613-4.027-2.613Zm21.8 0c-2.454 0-4.402.689-5.465 1.303l.779 2.66c.97-.612 2.519-1.12 3.983-1.12 2.424-.005 2.822 1.373 2.822 2.256v.21c-5.285-.009-8.624 1.82-8.624 5.549 0 2.276 1.7 4.41 4.657 4.41 1.818 0 3.34-.726 4.25-1.889h.09s.604 2.525 3.931 1.56c-.175-1.051-.23-2.172-.23-3.521v-5.195c0-3.31-1.415-6.223-6.193-6.223Zm16.486 0c-1.52 0-3.25.981-3.976 3.085h-.11v-2.755h-3.575v14.609h4.074v-7.481c0-.404.025-.756.089-1.078.301-1.567 1.5-2.57 3.22-2.57.472 0 .81.052 1.176.105v-3.825a3.922 3.922 0 0 0-.898-.09Zm-59.661 7.897v1.823c0 .27-.024.547-.098.79-.306 1.013-1.355 1.868-2.665 1.868-1.093 0-1.961-.62-1.961-1.932 0-2.007 2.209-2.562 4.724-2.549Zm45.422 0v1.823c0 .27-.024.547-.098.79-.306 1.013-1.354 1.868-2.665 1.868-1.093 0-1.961-.62-1.961-1.932 0-2.007 2.21-2.562 4.724-2.549ZM125.377.614c-1.275 0-2.288.712-2.288 1.579l.774 8.767c.085.528.732.935 1.515.935.783 0 1.428-.408 1.515-.935l.778-8.767c0-.867-1.016-1.579-2.293-1.579h-.001ZM112.76 7.646c-.662.016-1.414.517-1.892 1.346-.64 1.105-.526 2.338.222 2.771l7.979 3.716c.498.185 1.175-.169 1.567-.844.394-.68.363-1.444-.051-1.782l-7.206-5.055a1.168 1.168 0 0 0-.619-.151Zm25.234 0a1.162 1.162 0 0 0-.618.152l-7.207 5.055c-.412.338-.442 1.102-.05 1.781.393.676 1.068 1.03 1.567.845l7.982-3.715c.751-.433.859-1.667.224-2.771-.481-.83-1.234-1.33-1.896-1.346h-.002Zm-18.627 11.567a.802.802 0 0 0-.297.05l-7.979 3.711c-.748.435-.862 1.67-.222 2.775.638 1.102 1.762 1.626 2.51 1.193l7.207-5.05c.414-.343.445-1.106.051-1.785l.003.002c-.318-.553-.826-.89-1.273-.896Zm12.024 0c-.447.006-.954.343-1.273.896l.003-.002c-.392.679-.362 1.442.05 1.785l7.207 5.05c.747.433 1.872-.091 2.513-1.193.635-1.106.528-2.34-.224-2.775l-7.98-3.71a.8.8 0 0 0-.296-.05Zm-6.015 3.633c-.781.002-1.427.407-1.512.934l-.774 8.767c0 .868 1.013 1.578 2.288 1.578 1.277 0 2.292-.71 2.292-1.578l-.776-8.767c-.087-.527-.732-.933-1.515-.934h-.003Z" fill="#2D2D2D"/></svg>